<svg width="113" height="123" viewBox="0 0 113 123" fill="none" xmlns="http://www.w3.org/2000/svg">
<path d="M107.179 39.7884C103.43 38.0402 99.373 37.0476 95.24 36.8673C91.107 36.687 86.979 37.3225 83.0917 38.7376L20.5228 61.5087L10.5107 53.3793L2.19727 56.4063L7.49242 70.9546C8.1865 72.8667 9.2508 74.6232 10.6245 76.1234C11.9982 77.6237 13.6543 78.8383 15.4979 79.6978C17.3416 80.5573 19.3366 81.0447 21.3689 81.1323C23.4012 81.2198 25.4309 80.9057 27.3416 80.2079L53.6127 70.6481L47.6667 94.0002L63.2541 88.3256L74.3026 63.12L106.686 51.3331C107.458 51.0522 108.167 50.6219 108.773 50.0669C109.379 49.5119 109.869 48.843 110.217 48.0984C110.564 47.3538 110.761 46.548 110.797 45.7272C110.833 44.9064 110.706 44.0866 110.425 43.3146C110.143 42.5423 109.71 41.8334 109.153 41.2283C108.596 40.6233 107.926 40.134 107.179 39.7884Z" stroke="white" stroke-width="4" stroke-miterlimit="10" stroke-linecap="round" stroke-linejoin="round"/>
<path d="M45.1798 29L29.5923 34.6745L51.3389 50.3087L72.5951 42.5705L45.1798 29Z" stroke="white" stroke-width="4" stroke-miterlimit="10" stroke-linecap="round" stroke-linejoin="round"/>
</svg>
