<svg width="101" height="100" viewBox="0 0 101 100" fill="none" xmlns="http://www.w3.org/2000/svg">
<path d="M45.8045 0H53.8128C54.0597 0.0733949 54.3118 0.128326 54.5669 0.164351C60.8294 0.558288 66.8989 1.8862 72.8692 3.73848C74.6697 4.29678 75.0454 4.78203 75.0454 6.67345C75.0454 13.2425 75.0454 19.8134 75.0454 26.386V27.6512C77.994 25.7103 80.713 23.8841 83.4346 22.0579C84.1574 21.5726 84.8906 21.3326 85.71 21.7761C86.5293 22.2196 86.8138 22.984 86.8085 23.8997C86.7929 26.6651 86.8085 29.4305 86.8085 32.1933V33.3099C89.2483 33.3099 91.5524 33.3099 93.8539 33.3099C95.9936 33.3099 96.5859 33.9021 96.5859 36.0178V96.0371C98.0968 96.1572 99.7355 95.6562 100.5 97.4459V98.6173C99.9781 99.6609 99.1222 100 97.948 100C66.3118 99.9774 34.6738 99.9704 3.03402 99.9791C2.83831 99.9791 2.64261 99.9791 2.44951 99.9791C1.28051 99.9269 0.482041 99.1078 0.500307 97.9834C0.518573 96.9007 1.2831 96.1232 2.43123 96.0815C3.06792 96.058 3.70724 96.0815 4.40917 96.0815V35.7178C4.40917 34.0351 5.08761 33.3333 6.75762 33.3151C8.87384 33.2968 10.9901 33.3151 13.1037 33.3151C13.4481 33.3151 13.7899 33.2838 14.1866 33.2629C14.1866 30.0984 14.1866 27.0434 14.1866 23.9858C14.1866 23.0805 14.3822 22.3083 15.2146 21.8231C16.107 21.3013 16.8821 21.6065 17.6597 22.1283C20.1386 23.8006 22.6331 25.452 25.1251 27.106C25.3547 27.2573 25.6027 27.3799 25.9471 27.5782V26.2738C25.9471 19.6647 25.9471 13.0556 25.9471 6.44648C25.9471 5.03248 26.3202 4.3594 27.4109 3.97068C31.7971 2.353 36.3471 1.2201 40.9798 0.592207C42.5924 0.386108 44.1997 0.195664 45.8045 0ZM37.6972 74.5298C37.0501 74.5298 36.4994 74.5532 35.9541 74.5298C34.6233 74.4645 33.804 73.6584 33.8379 72.4766C33.8692 71.347 34.6938 70.5512 35.9776 70.5486C45.6428 70.533 55.3089 70.533 64.9758 70.5486C66.3092 70.5486 67.1546 71.3757 67.152 72.547C67.1494 73.7184 66.3092 74.4828 64.9627 74.535C64.4226 74.5558 63.8824 74.535 63.311 74.535V96.0189H70.9695C71 95.8795 71.0218 95.7383 71.0348 95.5963C71.0348 85.9957 71.0399 76.3968 71.0504 66.7997C71.0504 66.2779 70.8652 66.0823 70.372 65.9336C65.7143 64.5052 60.9245 63.5499 56.0751 63.0821C49.8126 62.5081 43.5944 62.7221 37.4441 64.0552C34.9234 64.6031 32.4445 65.3309 30.0308 65.9571V96.0032H37.7076L37.6972 74.5298ZM25.8923 96.0293C25.9106 95.6693 25.9393 95.3823 25.9393 95.0954C25.9393 74.4698 25.9393 53.8442 25.9393 33.2185C25.9621 32.9656 25.9115 32.7114 25.7934 32.4866C25.6754 32.2617 25.495 32.0756 25.2739 31.9506C23.1472 30.5706 21.0492 29.1461 18.9382 27.7426C18.7321 27.6069 18.5077 27.4999 18.2076 27.3356V96.0293H25.8923ZM82.7535 96.0293V27.2756C80.3738 28.8591 78.1192 30.3905 75.8282 31.8645C75.5652 32.011 75.35 32.2301 75.2084 32.4957C75.0668 32.7613 75.0047 33.0621 75.0297 33.362C75.0506 53.885 75.0558 74.408 75.0454 94.931V96.0111L82.7535 96.0293ZM14.1083 96.045V37.3457H8.40939V96.045H14.1083ZM86.8842 37.3457V96.0006H92.6066V37.3353L86.8842 37.3457ZM71.04 38.4832C71.04 36.1587 71.0139 33.949 71.0556 31.7393C71.0687 31.0714 70.8703 30.7949 70.2102 30.5992C64.9799 29.0331 59.5929 28.048 54.1468 27.6617C46.6398 27.1307 39.0991 27.9859 31.9017 30.1844C29.9369 30.7845 29.9447 30.8132 29.9447 32.8377V38.4023C43.6936 34.0273 57.2937 34.476 71.04 38.4728V38.4832ZM70.993 61.9942C71.0113 61.5924 71.0374 61.3055 71.04 61.0185C71.04 58.9314 71.0582 56.8574 71.0061 54.7781C71.0061 54.5642 70.5912 54.2563 70.3172 54.1676C59.1333 50.8466 47.8268 49.9204 36.3612 52.5397C34.198 53.0328 32.0714 53.685 29.9447 54.2616V61.942C43.6962 57.52 57.3172 57.9948 70.993 61.9733V61.9942ZM71.04 50.2544C71.04 47.9064 71.0086 45.6967 71.0608 43.4896C71.0765 42.7983 70.8312 42.5504 70.2023 42.3652C64.7808 40.755 59.1958 39.7582 53.5519 39.3937C46.1724 38.9474 38.7728 39.831 31.706 42.0026C29.9369 42.54 29.9447 42.5661 29.9447 44.4184V50.1709C43.691 45.7802 57.2937 46.2341 71.04 50.2335V50.2544ZM29.9812 14.8652C36.617 12.7235 43.5549 11.6664 50.5275 11.7346C57.4764 11.8025 64.266 12.9791 71.0426 14.9279C71.0426 12.426 71.0609 10.0858 71.0139 7.74829C71.0139 7.52915 70.6225 7.20043 70.3537 7.11956C59.1646 3.76718 47.8451 2.86452 36.369 5.46294C34.2032 5.95341 32.0765 6.61344 29.9812 7.18478V14.8652ZM71.0426 26.7121C71.0426 24.2049 71.0661 21.8648 71.0087 19.5299C71.0087 19.2977 70.5599 18.9585 70.2572 18.8646C65.6638 17.4389 60.9359 16.4895 56.1482 16.0314C48.2333 15.2492 40.2418 15.9769 32.5984 18.1759C29.9577 18.9403 29.9499 18.922 29.9499 21.6874V26.6442C43.6961 22.2483 57.2963 22.7075 71.0374 26.7121H71.0426ZM48.4818 96.0241V74.6028H41.7444V96.0241H48.4818ZM59.2116 96.045V74.595H52.5342V96.045H59.2116Z" fill="white"/>
</svg>
