<svg width="151" height="95" viewBox="0 0 151 95" fill="none" xmlns="http://www.w3.org/2000/svg">
<path d="M0.718262 48.4095V42.5671C2.04252 38.7346 5.20516 38.3412 8.60929 38.6022V13.9943C6.93839 13.7684 5.32198 13.7139 3.80687 13.2971C2.13597 12.8414 1.40376 11.3107 0.718262 9.84626V4.00395C1.85167 1.08279 3.97443 -0.206411 7.09422 0.06623C7.96278 0.144128 8.84692 0.06623 9.72326 0.06623C13.4234 0.06623 17.1235 0.0467556 20.8198 0.06623C22.3777 0.06623 23.2268 0.880252 23.2385 2.20062C23.2502 3.52098 22.4049 4.30777 20.8704 4.41683C20.3835 4.45188 19.8966 4.41683 19.4098 4.41683C15.0748 4.41683 10.7437 4.44798 6.40872 4.41683C5.08446 4.41683 4.88582 5.21917 5.13899 6.11889C5.44279 7.22114 4.00163 9.04001 6.35414 9.34771C6.74321 9.37304 7.13353 9.37304 7.5226 9.34771H143.493C143.836 9.34771 144.174 9.34771 144.513 9.34771C145.475 9.40613 146.009 9.04392 145.904 8.00009C145.873 7.66124 145.904 7.31849 145.904 6.97964C145.904 4.41681 145.904 4.41683 143.407 4.41683H32.9913C32.3102 4.44037 31.6282 4.41693 30.9503 4.3467C29.7235 4.17922 29.0028 3.44311 29.034 2.18117C29.0652 0.919229 29.7741 0.210348 31.0126 0.0740274C31.5465 0.0331104 32.0821 0.0214216 32.6173 0.0389868C69.6654 0.0389868 106.713 0.0259659 143.762 0C146.909 0 149.133 0.954266 150.282 3.96501V9.80732C148.926 13.5464 145.873 14.0372 142.402 13.7022V38.3334C144.085 38.5671 145.697 38.6333 147.212 39.05C148.887 39.5096 149.604 41.052 150.282 42.5204V48.3627C148.918 52.1018 145.849 52.5692 142.402 52.2576V62.4933C143.816 62.6452 144.899 63.2022 144.95 64.6784C145.012 66.3454 143.726 66.8205 142.297 67.1205V69.6404C142.297 77.0874 142.297 84.5357 142.297 91.9853C142.297 94.1119 141.639 94.9611 139.773 94.9727C131.789 95.0091 123.805 95.0091 115.824 94.9727C114.266 94.9727 113.44 94.0808 113.452 92.7682C113.463 91.4556 114.305 90.6767 115.862 90.626C116.918 90.591 117.974 90.626 119.115 90.626V67.062H101.564V90.6533C102.99 90.6533 104.345 90.591 105.697 90.6533C105.956 90.6501 106.212 90.699 106.451 90.7972C106.691 90.8954 106.908 91.0408 107.089 91.2248C107.271 91.4088 107.414 91.6275 107.509 91.868C107.605 92.1084 107.651 92.3656 107.644 92.6241C107.722 93.8705 107.087 94.6572 105.857 94.8909C105.376 94.9669 104.89 94.9981 104.404 94.9844H11.9589C9.3143 94.9844 8.70276 94.3573 8.70276 91.6854C8.70276 84.0437 8.70276 76.4006 8.70276 68.7563V67.0309C7.17207 66.8595 6.09317 66.2947 6.05033 64.8186C5.9958 63.1555 7.27335 62.6764 8.61708 62.4077V52.4796C6.95787 52.2654 5.34147 52.2264 3.82637 51.8214C2.15157 51.4046 1.41544 49.8739 0.718262 48.4095ZM137.849 13.8852H13.1819V38.4658H48.5941V28.4171C48.5941 24.0665 50.4324 22.2437 54.8259 22.2437H96.1467C96.7305 22.232 97.3145 22.2553 97.8955 22.3138C99.1193 22.4389 100.253 23.0128 101.079 23.9248C101.905 24.8368 102.364 26.0223 102.367 27.2525C102.414 29.344 102.367 31.4356 102.367 33.531V38.4658H137.81L137.849 13.8852ZM75.5311 47.9226H143.415C143.855 47.9226 144.291 47.9226 144.731 47.9226C145.604 47.9615 145.978 47.5331 145.9 46.684C145.869 46.2478 145.9 45.8077 145.9 45.3714C145.9 42.9917 145.9 42.9878 143.508 42.9878H8.03285C4.63263 42.9878 5.12727 42.8359 5.1039 45.8544C5.1039 47.9226 5.10385 47.9226 7.1993 47.9226H75.5311ZM82.3665 67.0659C82.3665 67.7514 82.3665 68.2772 82.3665 68.8069C82.3665 70.509 82.3977 72.2149 82.3043 73.9131C82.238 75.1517 81.4669 75.8606 80.205 75.8839C78.943 75.9073 78.2263 75.1945 78.0394 73.9676C77.9861 73.4853 77.9678 72.9998 77.9848 72.5149V55.5838C77.9848 52.2888 77.9848 52.3589 74.7092 52.2693C73.346 52.2342 73.0072 52.6588 73.0111 53.983C73.0618 65.6677 73.0422 77.3523 73.0422 89.0097V90.5404H77.9887C77.9887 88.3553 77.9536 86.2287 77.9887 84.1021C78.0238 82.5442 78.8339 81.699 80.1348 81.6834C81.4357 81.6678 82.2537 82.4974 82.3432 84.0437C82.3744 84.624 82.3432 85.2121 82.3432 85.7925V90.5443H97.0152V67.0659H82.3665ZM49.451 67.0659H31.8773V90.5287H49.4237L49.451 67.0659ZM53.0031 38.4814H98.0279V28.6235C98.0279 26.6176 98.0279 26.6098 96.0103 26.6098H55.005C54.6623 26.6098 54.2573 26.5008 54.0002 26.6488C53.6107 26.8708 53.0382 27.2681 53.0343 27.5991C52.9642 31.2058 52.9914 34.7969 52.9914 38.497L53.0031 38.4814ZM68.5631 67.0425H53.9924V90.5209H68.5631V67.0425ZM27.3437 67.0893H13.1819V90.5326H27.3164L27.3437 67.0893ZM137.818 90.5715V67.1049H123.691V90.5715H137.818ZM49.4471 52.429H31.9202V62.505H49.4471V52.429ZM101.541 62.4699H119.049V52.3939H101.541V62.4699ZM53.9262 62.4699H68.5359V52.4445H53.9262V62.4699ZM82.4756 52.3667V62.4933H96.9801V52.3667H82.4756ZM13.0884 62.4933H27.3242V52.3316C22.7711 52.3316 18.3114 52.3316 13.8479 52.3628C13.5908 52.3628 13.1235 52.7717 13.1196 52.9976C13.0806 56.1057 13.0962 59.2684 13.0962 62.4699L13.0884 62.4933ZM123.648 62.4933H137.908C137.908 59.4748 137.857 56.5614 137.935 53.6558C137.966 52.5146 137.545 52.2732 136.498 52.2887C132.653 52.3433 128.809 52.2888 124.969 52.316C124.548 52.316 124.128 52.3705 123.648 52.4056V62.4933Z" fill="white"/>
</svg>
