<svg width="46" height="44" viewBox="0 0 46 44" fill="none" xmlns="http://www.w3.org/2000/svg">
<path d="M5.27002 0.0511739C5.39421 0.0506678 5.5184 0.0501616 5.64636 0.0496401C5.78438 0.0495801 5.92239 0.0495303 6.06041 0.0494897C6.20688 0.0490891 6.35336 0.0486464 6.49984 0.0481651C6.90288 0.0469721 7.30593 0.0464083 7.70898 0.0459527C8.14351 0.0453584 8.57805 0.0442004 9.01258 0.0431309C10.0625 0.0406849 11.1123 0.0392256 12.1622 0.0379382C12.4589 0.0375679 12.7555 0.0371716 13.0522 0.036766C14.8952 0.0342483 16.7382 0.032049 18.5812 0.0308085C19.0081 0.0305162 19.435 0.0302208 19.8619 0.0299202C19.968 0.0298458 20.0741 0.0297714 20.1834 0.0296947C21.9007 0.0284336 23.6181 0.0251212 25.3354 0.020963C27.0995 0.0167268 28.8635 0.0143806 30.6276 0.01386C31.6177 0.01352 32.6077 0.0123539 33.5978 0.00906202C34.4414 0.00626191 35.2849 0.00517519 36.1285 0.00628869C36.5584 0.00680422 36.9884 0.00652992 37.4183 0.0040479C37.813 0.00178898 38.2076 0.00188999 38.6022 0.003769C38.8105 0.00417615 39.0188 0.00215007 39.2271 0C40.6256 0.0116017 41.8121 0.392106 42.906 1.26176C42.9899 1.32348 43.0737 1.3852 43.1601 1.44878C44.112 2.23776 44.6949 3.36889 44.9454 4.5533C44.955 4.74984 44.959 4.94667 44.9594 5.14342C44.9602 5.32564 44.9602 5.32564 44.961 5.51154C44.961 5.64654 44.9611 5.78154 44.9611 5.91654C44.9615 6.05982 44.962 6.2031 44.9625 6.34637C44.9637 6.74061 44.9643 7.13485 44.9647 7.5291C44.9653 7.95414 44.9665 8.37918 44.9676 8.80422C44.9701 9.83117 44.9716 10.8581 44.9729 11.8851C44.9733 12.1752 44.9737 12.4654 44.9741 12.7556C44.9767 14.5583 44.979 16.361 44.9802 18.1638C44.9805 18.5813 44.9808 18.9989 44.9811 19.4165C44.9812 19.5203 44.9813 19.6241 44.9814 19.731C44.9827 21.4108 44.986 23.0906 44.9903 24.7705C44.9946 26.496 44.997 28.2215 44.9975 29.947C44.9979 30.9155 44.9991 31.8839 45.0025 32.8523C45.0053 33.6775 45.0064 34.5026 45.0053 35.3277C45.0048 35.7483 45.005 36.1688 45.0076 36.5894C45.0099 36.9754 45.0098 37.3614 45.0079 37.7474C45.0075 37.9511 45.0095 38.1549 45.0117 38.3586C44.9999 39.7266 44.6109 40.8871 43.7218 41.9572C43.6583 42.0401 43.5948 42.123 43.5294 42.2085C42.7126 43.1462 41.3497 43.8512 40.0915 43.979C39.8101 43.9885 39.5303 43.9891 39.2487 43.986C39.1415 43.9861 39.0342 43.9861 38.9237 43.9861C38.58 43.9859 38.2364 43.9836 37.8927 43.9813C37.6791 43.9808 37.4655 43.9805 37.2519 43.9804C36.4641 43.9788 35.6763 43.9746 34.8885 43.9707C33.126 43.9646 31.3636 43.9584 29.5477 43.952C29.5477 37.8956 29.5477 31.8392 29.5477 25.5992C31.3985 25.5992 33.2493 25.5992 35.1562 25.5992C35.1898 24.9738 35.2235 24.3484 35.2581 23.7041C35.2955 23.2562 35.3347 22.8097 35.3796 22.3626C35.3896 22.2606 35.3995 22.1586 35.4097 22.0535C35.4458 21.6831 35.4827 21.3128 35.5194 20.9424C35.6015 20.1093 35.6835 19.2761 35.768 18.4177C33.8163 18.4177 31.8645 18.4177 29.8537 18.4177C29.8442 17.603 29.8442 17.603 29.8345 16.7719C29.8318 16.6021 29.829 16.4323 29.8261 16.2574C29.8252 16.1203 29.8244 15.9832 29.8238 15.8462C29.8214 15.7424 29.8214 15.7424 29.819 15.6366C29.8187 15.0172 29.9396 14.4494 30.3954 13.9915C31.0228 13.6205 31.5878 13.6026 32.3002 13.6105C32.3858 13.6107 32.4713 13.6109 32.5595 13.6111C32.877 13.6121 33.1944 13.6149 33.5119 13.6175C34.2228 13.6216 34.9336 13.6257 35.666 13.63C35.666 11.6221 35.666 9.6143 35.666 7.54561C34.6544 7.5415 33.6428 7.53738 32.6005 7.53315C32.2844 7.53133 31.9682 7.52951 31.6425 7.52764C31.3871 7.52706 31.1316 7.52655 30.8762 7.52613C30.7475 7.52511 30.6188 7.52409 30.4862 7.52304C28.2503 7.52262 26.0584 7.93965 24.3831 9.49256C22.8943 11.0287 22.3139 12.9771 22.2755 15.0572C22.2723 15.2018 22.2723 15.2018 22.2691 15.3494C22.2625 15.6552 22.2564 15.9611 22.2504 16.2669C22.246 16.4752 22.2416 16.6835 22.2371 16.8917C22.2261 17.4004 22.216 17.909 22.2058 18.4177C20.9944 18.4177 19.783 18.4177 18.5348 18.4177C18.5348 20.7876 18.5348 23.1575 18.5348 25.5992C19.7463 25.5992 20.9577 25.5992 22.2058 25.5992C22.2058 31.6557 22.2058 37.7121 22.2058 43.952C17.9027 43.9644 17.9027 43.9644 13.5127 43.977C12.6082 43.9806 11.7037 43.9842 10.7718 43.988C9.66397 43.9898 9.66397 43.9898 9.14473 43.9901C8.78346 43.9905 8.4222 43.992 8.06094 43.9942C7.59899 43.9969 7.13708 43.9977 6.67513 43.9972C6.5063 43.9973 6.33746 43.9981 6.16864 43.9996C4.55777 44.0137 3.00521 43.6465 1.78603 42.5428C0.810336 41.5224 0.0672632 40.3006 0.0640356 38.8735C0.0635181 38.752 0.0630007 38.6305 0.0624676 38.5053C0.0624062 38.3703 0.0623555 38.2353 0.0623139 38.1003C0.0619044 37.9571 0.0614519 37.8138 0.0609598 37.6705C0.0597402 37.2763 0.0591637 36.882 0.0586979 36.4878C0.0580903 36.0627 0.0569065 35.6377 0.0558131 35.2127C0.0533125 34.1857 0.0518207 33.1588 0.0505046 32.1318C0.050126 31.8416 0.0497208 31.5515 0.0493061 31.2613C0.0467321 29.4586 0.0444835 27.6559 0.0432153 25.8531C0.0429165 25.4356 0.0426147 25.018 0.0423074 24.6004C0.0422313 24.4966 0.0421551 24.3928 0.0420767 24.2859C0.0407875 22.6061 0.0374012 20.9263 0.0331502 19.2464C0.0288193 17.5209 0.0264207 15.7954 0.0258885 14.0699C0.0255409 13.1014 0.0243487 12.133 0.0209833 11.1645C0.0181207 10.3394 0.0170096 9.51431 0.018148 8.68918C0.018675 8.2686 0.0183947 7.84806 0.0158572 7.42748C0.0135478 7.04146 0.0136511 6.65552 0.0155721 6.2695C0.0159883 6.06576 0.0139168 5.86201 0.0117188 5.65828C0.0235796 4.29027 0.412582 3.12976 1.30166 2.05971C1.36476 1.97768 1.42785 1.89565 1.49286 1.81113C2.41026 0.752116 3.84912 0.0542485 5.27002 0.0511739Z" fill="white"/>
</svg>
