<svg width="45" height="46" viewBox="0 0 45 46" fill="none" xmlns="http://www.w3.org/2000/svg">
<path d="M7.00393 0.621146C7.14199 0.620819 7.28005 0.620417 7.41811 0.619947C7.79612 0.618881 8.17412 0.618901 8.55214 0.619107C8.96037 0.619143 9.36861 0.618178 9.77684 0.617351C10.5762 0.615902 11.3755 0.61542 12.1749 0.615323C12.8249 0.61524 13.4749 0.61488 14.1249 0.614327C15.9692 0.612789 17.8135 0.611983 19.6578 0.612114C19.8069 0.612125 19.8068 0.612125 19.9589 0.612136C20.0584 0.612143 20.1579 0.61215 20.2604 0.612157C21.8722 0.612228 23.484 0.610558 25.0957 0.608095C26.752 0.605584 28.4083 0.60438 30.0646 0.604531C30.994 0.604589 31.9233 0.604112 32.8526 0.602229C33.644 0.600636 34.4354 0.600262 35.2268 0.601445C35.6302 0.602014 36.0336 0.602031 36.437 0.60051C36.807 0.599129 37.1771 0.599394 37.5471 0.600909C37.6802 0.601176 37.8133 0.600866 37.9464 0.599886C39.6392 0.588255 41.2173 1.0647 42.4953 2.2163C42.5734 2.28632 42.6516 2.35633 42.732 2.42847C43.8575 3.49224 44.6934 4.94944 44.7821 6.52388C44.7887 6.87997 44.7898 7.23569 44.789 7.59183C44.7894 7.72988 44.7898 7.86794 44.7902 8.006C44.7913 8.38401 44.7913 8.76202 44.7911 9.14003C44.791 9.54826 44.792 9.9565 44.7928 10.3647C44.7943 11.1641 44.7948 11.9634 44.7949 12.7628C44.795 13.4128 44.7953 14.0628 44.7959 14.7128C44.7974 16.5571 44.7982 18.4014 44.7981 20.2457C44.7981 20.3947 44.7981 20.3947 44.7981 20.5468C44.798 20.6463 44.798 20.7458 44.798 20.8483C44.798 22.4601 44.7996 24.0718 44.8021 25.6836C44.8046 27.3399 44.8058 28.9962 44.8057 30.6525C44.8056 31.5819 44.8061 32.5112 44.808 33.4405C44.8096 34.2319 44.8099 35.0233 44.8087 35.8147C44.8082 36.2181 44.8082 36.6215 44.8097 37.0248C44.8111 37.3949 44.8108 37.765 44.8093 38.135C44.809 38.2681 44.8093 38.4012 44.8103 38.5343C44.8219 40.2271 44.3455 41.8051 43.1939 43.0832C43.1239 43.1613 43.0539 43.2394 42.9817 43.3199C41.9179 44.4454 40.4608 45.2813 38.8863 45.37C38.5302 45.3766 38.1745 45.3777 37.8184 45.3769C37.6803 45.3773 37.5423 45.3777 37.4042 45.3781C37.0262 45.3792 36.6482 45.3792 36.2702 45.379C35.8619 45.3789 35.4537 45.3799 35.0455 45.3807C34.2461 45.3822 33.4468 45.3827 32.6474 45.3828C31.9974 45.3828 31.3474 45.3832 30.6974 45.3838C28.8531 45.3853 27.0088 45.3861 25.1645 45.386C25.0155 45.386 25.0155 45.386 24.8634 45.386C24.7639 45.3859 24.6644 45.3859 24.5619 45.3859C22.9501 45.3859 21.3384 45.3875 19.7266 45.39C18.0703 45.3925 16.414 45.3937 14.7577 45.3936C13.8283 45.3935 12.899 45.394 11.9697 45.3959C11.1783 45.3974 10.3869 45.3978 9.59551 45.3966C9.19211 45.3961 8.78874 45.3961 8.38534 45.3976C8.01527 45.399 7.64523 45.3987 7.27515 45.3972C7.14206 45.3969 7.00895 45.3972 6.87586 45.3982C5.18309 45.4098 3.60505 44.9334 2.32699 43.7818C2.24887 43.7118 2.17075 43.6418 2.09026 43.5696C0.964821 42.5058 0.128939 41.0486 0.0402248 39.4742C0.0335799 39.1181 0.0324546 38.7624 0.0332548 38.4063C0.0329282 38.2682 0.0325261 38.1301 0.0320556 37.9921C0.0309905 37.6141 0.0310106 37.2361 0.0312169 36.8581C0.0312526 36.4498 0.0302876 36.0416 0.0294601 35.6334C0.028011 34.834 0.0275295 34.0347 0.0274321 33.2353C0.027349 32.5853 0.0269893 31.9353 0.0264361 31.2853C0.0248985 29.441 0.0240926 27.5967 0.0242236 25.7524C0.0242306 25.653 0.0242377 25.5537 0.0242449 25.4513C0.0242521 25.3518 0.0242589 25.2523 0.0242662 25.1498C0.0243372 23.538 0.0226666 21.9262 0.0202036 20.3145C0.0176927 18.6582 0.0164893 17.0019 0.01664 15.3456C0.0166979 14.4162 0.016222 13.4869 0.0143389 12.5576C0.0127456 11.7662 0.0123709 10.9748 0.0135541 10.1834C0.0141228 9.78 0.0141402 9.37663 0.0126194 8.97324C0.0112387 8.60316 0.0115032 8.23312 0.0130185 7.86305C0.013285 7.72995 0.0129754 7.59685 0.0119952 7.46375C0.000364288 5.77098 0.476805 4.19294 1.62841 2.91488C1.69843 2.83676 1.76844 2.75864 1.84058 2.67816C3.25833 1.17822 4.98466 0.616608 7.00393 0.621146ZM7.02091 8.18049C6.49078 8.79537 6.14974 9.51439 5.81989 10.25C5.78826 10.32 5.75663 10.39 5.72404 10.4621C5.23516 11.7249 5.35807 13.2632 5.36068 14.5891C5.36044 14.7934 5.36013 14.9977 5.35975 15.202C5.35896 15.7526 5.35926 16.3033 5.35982 16.8539C5.36022 17.3738 5.35991 17.8937 5.35965 18.4136C5.35916 19.5061 5.35973 20.5985 5.36067 21.691C5.36145 22.6251 5.36131 23.5592 5.36051 24.4933C5.35957 25.5823 5.35921 26.6712 5.35974 27.7602C5.36002 28.3351 5.36005 28.91 5.35947 29.4849C5.35896 30.0257 5.35932 30.5664 5.36033 31.1071C5.36056 31.3044 5.3605 31.5018 5.36011 31.6992C5.35566 34.1923 5.60826 36.2952 7.39169 38.1931C9.19188 39.9537 11.5529 40.0541 13.9214 40.0495C14.1276 40.0498 14.3337 40.0501 14.5398 40.0504C15.0959 40.0512 15.6519 40.0509 16.208 40.0504C16.5561 40.0501 16.9043 40.0501 17.2524 40.0503C17.3395 40.0503 17.3395 40.0503 17.4283 40.0504C17.5463 40.0504 17.6643 40.0505 17.7823 40.0505C18.885 40.051 19.9877 40.0505 21.0904 40.0495C22.0336 40.0487 22.9767 40.0489 23.9199 40.0497C25.0191 40.0506 26.1182 40.051 27.2173 40.0505C27.3348 40.0504 27.4524 40.0503 27.5699 40.0503C27.6277 40.0503 27.6855 40.0502 27.7451 40.0502C28.1496 40.0501 28.5541 40.0503 28.9586 40.0507C29.5045 40.0512 30.0503 40.0509 30.5962 40.0499C30.7956 40.0496 30.995 40.0497 31.1943 40.0501C33.615 40.0544 35.7935 39.8192 37.6053 38.0185C39.3596 36.147 39.4523 33.8966 39.4517 31.4585C39.452 31.2543 39.4523 31.0501 39.4526 30.8459C39.4534 30.2934 39.4536 29.7409 39.4536 29.1885C39.4537 28.7845 39.454 28.3805 39.4542 27.9765C39.455 26.8887 39.4553 25.8008 39.4552 24.713C39.4552 24.6514 39.4552 24.5898 39.4552 24.5263C39.4552 24.4646 39.4552 24.4029 39.4552 24.3393C39.4552 23.3403 39.456 22.3414 39.4572 21.3424C39.4585 20.3135 39.4591 19.2846 39.459 18.2556C39.459 17.6793 39.4592 17.1029 39.4602 16.5265C39.461 15.984 39.461 15.4415 39.4604 14.899C39.4603 14.7009 39.4605 14.5029 39.461 14.3048C39.4673 11.8164 39.2321 9.69625 37.4306 7.80494C35.9447 6.37622 34.0758 5.95603 32.0688 5.95949C31.9396 5.95919 31.9396 5.95919 31.8078 5.95889C31.522 5.95834 31.2362 5.95841 30.9504 5.95848C30.7444 5.95822 30.5383 5.95792 30.3322 5.95759C29.7744 5.95682 29.2165 5.95662 28.6586 5.95656C28.3095 5.9565 27.9604 5.95632 27.6113 5.95608C26.4547 5.95531 25.298 5.95491 24.1414 5.95497C24.0481 5.95498 24.0481 5.95498 23.9529 5.95499C23.8594 5.95499 23.8594 5.95499 23.7641 5.955C22.7555 5.95503 21.7469 5.9542 20.7382 5.95296C19.6997 5.95171 18.6612 5.95111 17.6227 5.95118C17.0408 5.95121 16.459 5.95096 15.8771 5.95003C15.3294 5.94918 14.7817 5.94918 14.2341 5.94982C14.034 5.94991 13.8339 5.9497 13.6339 5.94917C11.0648 5.9428 8.90954 6.24588 7.02091 8.18049Z" fill="white"/>
<path d="M11.4538 8.57903C11.5329 8.57859 11.6119 8.57815 11.6934 8.57769C11.8232 8.57762 11.8232 8.57762 11.9557 8.57756C12.094 8.57698 12.094 8.57698 12.2351 8.5764C12.5451 8.57523 12.8551 8.57469 13.1652 8.57415C13.3871 8.57346 13.609 8.57274 13.8308 8.57199C14.4976 8.5699 15.1643 8.56857 15.831 8.56744C16.0194 8.56712 16.2079 8.56677 16.3963 8.56642C17.5675 8.56421 18.7387 8.56229 19.9099 8.5612C20.1811 8.56095 20.4523 8.56069 20.7235 8.56043C20.7909 8.56036 20.8583 8.56029 20.9278 8.56023C22.0185 8.55912 23.1092 8.55622 24.1999 8.55258C25.3208 8.54887 26.4417 8.54682 27.5625 8.54636C28.1914 8.54607 28.8203 8.54505 29.4492 8.54216C30.0413 8.53945 30.6334 8.53899 31.2255 8.54001C31.4423 8.54003 31.6591 8.53931 31.8759 8.53777C33.4759 8.52705 34.6218 8.63349 35.8303 9.77701C36.3942 10.3743 36.829 11.212 36.8315 12.0417C36.8321 12.1603 36.8321 12.1603 36.8328 12.2813C36.8329 12.3679 36.8329 12.4544 36.833 12.5436C36.8333 12.6358 36.8337 12.728 36.8341 12.823C36.8353 13.133 36.8358 13.443 36.8364 13.7531C36.837 13.975 36.8378 14.1968 36.8385 14.4187C36.8406 15.0854 36.8419 15.7522 36.8431 16.4189C36.8434 16.6073 36.8437 16.7958 36.8441 16.9842C36.8463 18.1554 36.8482 19.3266 36.8493 20.4978C36.8496 20.769 36.8498 21.0402 36.8501 21.3114C36.8501 21.3788 36.8502 21.4462 36.8503 21.5157C36.8514 22.6064 36.8543 23.6971 36.8579 24.7878C36.8616 25.9087 36.8637 27.0296 36.8641 28.1504C36.8644 28.7793 36.8655 29.4082 36.8683 30.0371C36.8711 30.6292 36.8715 31.2213 36.8705 31.8134C36.8705 32.0302 36.8712 32.247 36.8727 32.4638C36.8835 34.0638 36.777 35.2097 35.6335 36.4182C35.0362 36.9821 34.1985 37.4169 33.3688 37.4194C33.2502 37.42 33.2502 37.42 33.1292 37.4207C33.0427 37.4208 32.9561 37.4208 32.8669 37.4208C32.7747 37.4212 32.6825 37.4216 32.5875 37.422C32.2775 37.4232 31.9675 37.4237 31.6574 37.4242C31.4356 37.4249 31.2137 37.4257 30.9918 37.4264C30.3251 37.4285 29.6583 37.4298 28.9916 37.431C28.8032 37.4313 28.6147 37.4316 28.4263 37.432C27.2551 37.4342 26.0839 37.4361 24.9127 37.4372C24.6415 37.4375 24.3703 37.4377 24.0991 37.438C23.998 37.4381 23.998 37.4381 23.8949 37.4382C22.8041 37.4393 21.7134 37.4422 20.6227 37.4458C19.5018 37.4495 18.3809 37.4516 17.2601 37.452C16.6312 37.4523 16.0023 37.4533 15.3734 37.4562C14.7813 37.4589 14.1892 37.4594 13.5971 37.4584C13.3803 37.4584 13.1635 37.4591 12.9467 37.4606C11.3467 37.4713 10.2008 37.3649 8.99231 36.2214C8.42841 35.6241 7.99362 34.7864 7.99114 33.9567C7.9907 33.8777 7.99026 33.7986 7.9898 33.7171C7.98976 33.6305 7.98971 33.544 7.98967 33.4548C7.98928 33.3626 7.9889 33.2704 7.98851 33.1754C7.98734 32.8654 7.9868 32.5554 7.98626 32.2453C7.98557 32.0234 7.98485 31.8016 7.9841 31.5797C7.98201 30.913 7.98068 30.2462 7.97955 29.5795C7.97923 29.3911 7.97888 29.2026 7.97853 29.0142C7.97632 27.843 7.9744 26.6718 7.97331 25.5006C7.97306 25.2294 7.9728 24.9582 7.97253 24.687C7.97247 24.6196 7.9724 24.5522 7.97234 24.4827C7.97123 23.392 7.96833 22.3013 7.96469 21.2106C7.96098 20.0897 7.95893 18.9688 7.95847 17.848C7.95818 17.2191 7.95716 16.5902 7.95427 15.9613C7.95156 15.3692 7.9511 14.7771 7.95212 14.185C7.95214 13.9682 7.95142 13.7514 7.94988 13.5346C7.93916 11.9346 8.0456 10.7887 9.18912 9.5802C9.78644 9.0163 10.6241 8.58151 11.4538 8.57903ZM29.4844 12.2585C29.0401 12.9571 28.9845 13.6236 29.0478 14.4416C29.2067 15.0637 29.5837 15.6158 30.1202 15.9704C30.8492 16.3846 31.5943 16.5152 32.4251 16.303C33.2077 15.9772 33.6739 15.4657 34.0252 14.7036C34.2222 14.1127 34.2109 13.3651 33.9706 12.7879C33.6308 12.1442 33.1615 11.6474 32.4742 11.3782C31.3168 11.0501 30.2731 11.3735 29.4844 12.2585ZM15.6875 16.7993C13.9054 18.7107 13.2315 21.0706 13.2967 23.6336C13.3541 24.9223 13.7111 26.045 14.2903 27.1907C14.337 27.2831 14.3837 27.3755 14.4319 27.4707C15.5934 29.596 17.6691 31.1614 19.9772 31.8461C22.4691 32.4469 24.892 32.1128 27.1267 30.8582C27.5006 30.6265 27.8399 30.3573 28.1746 30.0723C28.2494 30.0105 28.3243 29.9487 28.4014 29.885C30.0569 28.465 31.2429 26.404 31.4928 24.2217C31.6889 21.6458 31.1872 19.2358 29.4844 17.2359C29.4226 17.1611 29.3608 17.0862 29.2972 17.0091C27.6862 15.1311 25.4327 14.0708 22.9844 13.8413C20.1601 13.7174 17.6575 14.803 15.6875 16.7993Z" fill="white"/>
<path d="M26.3178 17.612C26.6382 17.874 26.9263 18.1618 27.2136 18.4594C27.278 18.521 27.3424 18.5827 27.4087 18.6463C28.528 19.7829 28.9891 21.3977 29.0037 22.951C28.9871 24.7116 28.4518 26.3198 27.1877 27.575C27.1098 27.6502 27.0319 27.7254 26.9517 27.8029C26.89 27.8672 26.8283 27.9316 26.7647 27.998C25.617 29.1282 23.9793 29.5774 22.4109 29.593C20.6715 29.5757 19.0738 29.0235 17.836 27.7769C17.7608 27.699 17.6856 27.6211 17.6082 27.5409C17.5438 27.4792 17.4794 27.4175 17.4131 27.354C16.8504 26.7826 16.5233 26.0868 16.211 25.3578C16.1709 25.2647 16.1309 25.1716 16.0896 25.0757C15.6176 23.738 15.6527 21.9456 16.211 20.6424C16.234 20.5869 16.257 20.5314 16.2806 20.4743C16.6653 19.5634 17.1617 18.8813 17.8701 18.1974C17.9318 18.133 17.9935 18.0686 18.0571 18.0023C20.1699 15.9217 23.992 15.8806 26.3178 17.612Z" fill="white"/>
</svg>
