<svg width="46" height="44" viewBox="0 0 46 44" fill="none" xmlns="http://www.w3.org/2000/svg">
<path d="M5.18418 0.0118319C5.33975 0.0114737 5.49533 0.0110038 5.6509 0.0104323C6.07691 0.00919482 6.5029 0.00955598 6.92891 0.0101893C7.38894 0.0105954 7.84896 0.00952192 8.30899 0.00864409C9.20964 0.00717024 10.1103 0.00709794 11.0109 0.00754746C11.7431 0.00789422 12.4752 0.0077701 13.2074 0.00731176C13.3637 0.00721548 13.3637 0.00721548 13.5233 0.00711726C13.7351 0.00698592 13.9469 0.00685399 14.1587 0.00672147C16.1443 0.00554447 18.1299 0.00601069 20.1156 0.00699464C21.9315 0.00784644 23.7474 0.00673665 25.5633 0.00468473C27.4287 0.00259285 29.294 0.00176896 31.1594 0.00233939C32.2064 0.00263887 33.2533 0.00244754 34.3002 0.000945675C35.1915 -0.000316992 36.0827 -0.000371279 36.974 0.00112328C37.4285 0.00185323 37.883 0.00203713 38.3376 0.000724355C38.7541 -0.000463648 39.1705 -5.40729e-05 39.587 0.00160249C39.7373 0.00192483 39.8876 0.00167471 40.0378 0.000778177C41.4638 -0.0071214 42.6311 0.29437 43.7103 1.25646C44.7977 2.39659 45.0055 3.56238 44.9996 5.05751C45 5.20963 45.0005 5.36175 45.001 5.51387C45.0023 5.93041 45.0019 6.34694 45.0013 6.76348C45.0009 7.21328 45.002 7.66308 45.0029 8.11289C45.0044 8.99352 45.0045 9.87415 45.004 10.7548C45.0036 11.4707 45.0038 12.1865 45.0042 12.9024C45.0043 13.0043 45.0044 13.1063 45.0044 13.2113C45.0046 13.4184 45.0047 13.6255 45.0048 13.8326C45.006 15.7741 45.0056 17.7156 45.0046 19.6571C45.0037 21.4327 45.0048 23.2082 45.0069 24.9838C45.0091 26.8077 45.0099 28.6316 45.0093 30.4555C45.009 31.4792 45.0092 32.5029 45.0108 33.5266C45.012 34.398 45.0121 35.2694 45.0106 36.1409C45.0098 36.5853 45.0096 37.0297 45.011 37.4742C45.0122 37.8814 45.0118 38.2886 45.0101 38.6959C45.0098 38.8428 45.01 38.9897 45.0109 39.1366C45.019 40.5309 44.7107 41.6723 43.7267 42.7275C42.5607 43.7907 41.3684 43.9939 39.8393 43.9882C39.6837 43.9885 39.5281 43.989 39.3725 43.9896C38.9465 43.9908 38.5205 43.9904 38.0945 43.9898C37.6345 43.9894 37.1745 43.9905 36.7144 43.9914C35.8138 43.9928 34.9132 43.9929 34.0125 43.9925C33.2804 43.9921 32.5482 43.9922 31.8161 43.9927C31.7118 43.9928 31.6076 43.9928 31.5002 43.9929C31.2884 43.993 31.0766 43.9931 30.8648 43.9933C28.8791 43.9945 26.8935 43.994 24.9079 43.993C23.0919 43.9922 21.276 43.9933 19.4601 43.9953C17.5947 43.9974 15.7294 43.9982 13.864 43.9977C12.8171 43.9974 11.7701 43.9976 10.7232 43.9991C9.83195 44.0003 8.94071 44.0004 8.04947 43.9989C7.59493 43.9981 7.14041 43.998 6.68587 43.9993C6.26937 44.0005 5.85291 44.0001 5.43641 43.9984C5.28615 43.9981 5.13588 43.9983 4.98561 43.9992C3.55962 44.0071 2.39236 43.7056 1.31318 42.7435C0.225746 41.6034 0.0179548 40.4376 0.0238197 38.9425C0.0234533 38.7904 0.0229728 38.6383 0.0223883 38.4861C0.0211227 38.0696 0.021492 37.6531 0.0221397 37.2365C0.0225551 36.7867 0.0214572 36.3369 0.0205594 35.8871C0.0190521 35.0065 0.0189782 34.1259 0.0194379 33.2452C0.0197926 32.5293 0.0196658 31.8135 0.019197 31.0976C0.0191314 30.9957 0.0190656 30.8937 0.0189979 30.7887C0.0188636 30.5816 0.0187286 30.3745 0.0185931 30.1674C0.0173893 28.2259 0.0178661 26.2844 0.0188725 24.3429C0.0197436 22.5673 0.0186088 20.7918 0.0165103 19.0162C0.0143708 17.1923 0.0135282 15.3684 0.0141116 13.5445C0.0144179 12.5208 0.0142219 11.4971 0.0126859 10.4734C0.0113945 9.602 0.0113391 8.73057 0.0128676 7.85913C0.0136141 7.4147 0.0138023 6.97028 0.0124597 6.52584C0.0112447 6.1186 0.0116635 5.71139 0.0133578 5.30415C0.0136874 5.15722 0.0134318 5.01029 0.0125149 4.86336C0.00443581 3.46906 0.312779 2.32774 1.29673 1.27254C2.46278 0.209271 3.65506 0.0060973 5.18418 0.0118319ZM7.06199 7.39142C6.27851 8.35746 6.07804 9.48483 6.19756 10.6795C6.33427 11.2843 6.61989 11.8083 6.98696 12.309C7.05027 12.3956 7.11359 12.4823 7.17882 12.5716C7.85942 13.3324 8.81094 13.7334 9.8211 13.8473C11.0179 13.9044 11.9786 13.55 12.88 12.8075C13.7179 12.0403 14.1101 11.1063 14.1792 9.99776C14.1792 9.06554 13.8623 8.25324 13.3021 7.50632C13.2071 7.37897 13.2071 7.37897 13.1102 7.24904C12.545 6.60537 11.7354 6.3096 10.9339 6.04838C9.3873 5.948 8.16321 6.27168 7.06199 7.39142ZM26.1078 18.8268C26.0336 18.881 25.9593 18.9352 25.8827 18.991C25.6404 19.1941 25.4513 19.4135 25.2527 19.6576C24.8799 20.1133 24.8799 20.1133 24.7922 20.199C24.7632 19.35 24.7343 18.5009 24.7045 17.6262C22.5047 17.6262 20.3049 17.6262 18.0385 17.6262C18.0385 24.1355 18.0385 30.6448 18.0385 37.3513C20.2383 37.3513 22.438 37.3513 24.7045 37.3513C24.7078 36.5027 24.711 35.6541 24.7144 34.7798C24.7171 34.2412 24.7198 33.7026 24.7228 33.1641C24.7276 32.3098 24.7321 31.4555 24.7349 30.6012C24.7369 29.9789 24.7398 29.3567 24.7438 28.7344C24.7459 28.4052 24.7476 28.0761 24.7481 27.747C24.7487 27.4364 24.7504 27.1258 24.7531 26.8153C24.7542 26.6485 24.7541 26.4818 24.7539 26.315C24.7665 25.1442 25.0044 24.283 25.7899 23.3936C26.6535 22.6698 27.5265 22.4097 28.6533 22.492C29.1011 22.5502 29.4881 22.7321 29.8794 22.9434C29.9386 22.9743 29.9979 23.0053 30.0589 23.0372C30.7372 23.448 31.147 24.1876 31.3705 24.9159C31.44 25.2627 31.4698 25.5918 31.4721 25.9449C31.4734 26.0964 31.4734 26.0964 31.4747 26.251C31.4752 26.3606 31.4757 26.4702 31.4762 26.5832C31.477 26.7007 31.4779 26.8182 31.4788 26.9357C31.4812 27.2538 31.483 27.5718 31.4848 27.8898C31.4867 28.2225 31.4891 28.5553 31.4915 28.888C31.4958 29.5176 31.4998 30.1472 31.5036 30.7768C31.5087 31.628 31.5145 32.4791 31.5203 33.3302C31.5294 34.6706 31.5376 36.0109 31.5459 37.3513C33.7457 37.3513 35.9455 37.3513 38.2119 37.3513C38.217 35.1136 38.217 35.1136 38.2205 32.876C38.2215 31.9626 38.2227 31.0493 38.2251 30.1359C38.2269 29.4705 38.228 28.8052 38.2284 28.1398C38.2286 27.788 38.2292 27.4362 38.2304 27.0844C38.2317 26.7522 38.232 26.4199 38.2317 26.0877C38.2318 25.9668 38.2321 25.846 38.2328 25.7252C38.2465 23.1734 37.5427 21.1258 35.7149 19.2962C34.4416 18.1138 32.6929 17.3141 30.9319 17.1974C30.8701 17.1929 30.8082 17.1885 30.7445 17.184C28.9997 17.1163 27.4649 17.8144 26.1078 18.8268ZM6.81153 17.6262C6.81153 24.1355 6.81153 30.6448 6.81153 37.3513C9.01131 37.3513 11.2111 37.3513 13.4775 37.3513C13.4775 30.842 13.4775 24.3327 13.4775 17.6262C11.2778 17.6262 9.07797 17.6262 6.81153 17.6262Z" fill="white"/>
</svg>
